<mxfile host="65bd71144e">
    <diagram id="89wvS5ITOrKQmjU-tdGL" name="Page-1">
        <mxGraphModel dx="1242" dy="568" grid="1" gridSize="10" guides="1" tooltips="1" connect="1" arrows="1" fold="1" page="1" pageScale="1" pageWidth="1654" pageHeight="2336" math="0" shadow="0">
            <root>
                <mxCell id="0"/>
                <mxCell id="1" parent="0"/>
                <mxCell id="58" value="sd Use Case 2" style="shape=umlFrame;whiteSpace=wrap;html=1;width=90;height=30;" vertex="1" parent="1">
                    <mxGeometry x="1050" y="120" width="630" height="510" as="geometry"/>
                </mxCell>
                <mxCell id="59" value="&lt;b&gt;Administrator&lt;/b&gt;" style="shape=umlLifeline;participant=umlActor;perimeter=lifelinePerimeter;whiteSpace=wrap;html=1;container=1;collapsible=0;recursiveResize=0;verticalAlign=top;spacingTop=36;outlineConnect=0;" vertex="1" parent="1">
                    <mxGeometry x="1090" y="200" width="20" height="440" as="geometry"/>
                </mxCell>
                <mxCell id="60" value="" style="html=1;points=[];perimeter=orthogonalPerimeter;" vertex="1" parent="59">
                    <mxGeometry x="5" y="110" width="10" height="250" as="geometry"/>
                </mxCell>
                <mxCell id="61" value="" style="shape=umlLifeline;participant=umlBoundary;perimeter=lifelinePerimeter;whiteSpace=wrap;html=1;container=1;collapsible=0;recursiveResize=0;verticalAlign=top;spacingTop=36;outlineConnect=0;" vertex="1" parent="1">
                    <mxGeometry x="1190" y="200" width="61" height="440" as="geometry"/>
                </mxCell>
                <mxCell id="62" value="&lt;b&gt;Main Page&lt;/b&gt;" style="text;html=1;strokeColor=none;fillColor=none;align=center;verticalAlign=middle;whiteSpace=wrap;rounded=0;" vertex="1" parent="61">
                    <mxGeometry x="-11" y="40" width="86" height="30" as="geometry"/>
                </mxCell>
                <mxCell id="63" value="" style="html=1;points=[];perimeter=orthogonalPerimeter;" vertex="1" parent="61">
                    <mxGeometry x="27" y="110" width="10" height="250" as="geometry"/>
                </mxCell>
                <mxCell id="64" value="" style="shape=umlLifeline;participant=umlBoundary;perimeter=lifelinePerimeter;whiteSpace=wrap;html=1;container=1;collapsible=0;recursiveResize=0;verticalAlign=top;spacingTop=36;outlineConnect=0;" vertex="1" parent="1">
                    <mxGeometry x="1330" y="200" width="60" height="440" as="geometry"/>
                </mxCell>
                <mxCell id="65" value="&lt;b&gt;Rating &amp;amp; Feedback Page&lt;/b&gt;" style="text;html=1;strokeColor=none;fillColor=none;align=center;verticalAlign=middle;whiteSpace=wrap;rounded=0;" vertex="1" parent="64">
                    <mxGeometry x="-10" y="40" width="95" height="30" as="geometry"/>
                </mxCell>
                <mxCell id="66" value="" style="html=1;points=[];perimeter=orthogonalPerimeter;" vertex="1" parent="64">
                    <mxGeometry x="25" y="130" width="10" height="110" as="geometry"/>
                </mxCell>
                <mxCell id="67" value="" style="html=1;points=[];perimeter=orthogonalPerimeter;" vertex="1" parent="64">
                    <mxGeometry x="25" y="280" width="10" height="40" as="geometry"/>
                </mxCell>
                <mxCell id="68" value="" style="shape=umlLifeline;participant=umlControl;perimeter=lifelinePerimeter;whiteSpace=wrap;html=1;container=1;collapsible=0;recursiveResize=0;verticalAlign=top;spacingTop=36;outlineConnect=0;" vertex="1" parent="1">
                    <mxGeometry x="1490" y="200" width="50" height="440" as="geometry"/>
                </mxCell>
                <mxCell id="69" value="" style="html=1;points=[];perimeter=orthogonalPerimeter;" vertex="1" parent="68">
                    <mxGeometry x="20" y="155" width="10" height="85" as="geometry"/>
                </mxCell>
                <mxCell id="70" value="&lt;b&gt;Rating &amp;amp; Feedback Controller&lt;/b&gt;" style="text;html=1;strokeColor=none;fillColor=none;align=center;verticalAlign=middle;whiteSpace=wrap;rounded=0;" vertex="1" parent="1">
                    <mxGeometry x="1440" y="240" width="150" height="30" as="geometry"/>
                </mxCell>
                <mxCell id="71" value="&lt;font style=&quot;font-size: 9px;&quot;&gt;login(matric id, password)&lt;/font&gt;" style="html=1;verticalAlign=bottom;startArrow=oval;endArrow=block;startSize=8;exitX=1.5;exitY=0;exitDx=0;exitDy=0;exitPerimeter=0;" edge="1" parent="1" source="60" target="63">
                    <mxGeometry x="0.0103" relative="1" as="geometry">
                        <mxPoint x="1110" y="300" as="sourcePoint"/>
                        <mxPoint as="offset"/>
                    </mxGeometry>
                </mxCell>
                <mxCell id="72" value="&lt;font style=&quot;font-size: 9px;&quot;&gt;pressRatingFeedbackButton()&lt;/font&gt;" style="html=1;verticalAlign=bottom;startArrow=oval;endArrow=block;startSize=8;" edge="1" parent="1" target="66">
                    <mxGeometry x="-0.0039" relative="1" as="geometry">
                        <mxPoint x="1230" y="330" as="sourcePoint"/>
                        <mxPoint as="offset"/>
                        <Array as="points">
                            <mxPoint x="1310" y="330"/>
                        </Array>
                    </mxGeometry>
                </mxCell>
                <mxCell id="73" value="&lt;div style=&quot;text-align: start;&quot;&gt;&lt;span style=&quot;background-color: initial; font-size: 0px;&quot;&gt;&lt;font face=&quot;monospace&quot; color=&quot;rgba(0, 0, 0, 0)&quot;&gt;us&lt;/font&gt;&lt;/span&gt;&lt;/div&gt;" style="shape=umlLifeline;participant=umlEntity;perimeter=lifelinePerimeter;whiteSpace=wrap;html=1;container=1;collapsible=0;recursiveResize=0;verticalAlign=top;spacingTop=36;outlineConnect=0;" vertex="1" parent="1">
                    <mxGeometry x="1600" y="200" width="50" height="440" as="geometry"/>
                </mxCell>
                <mxCell id="74" value="&lt;b&gt;&lt;font style=&quot;font-size: 12px;&quot;&gt;User&lt;/font&gt;&lt;/b&gt;" style="text;html=1;strokeColor=none;fillColor=none;align=center;verticalAlign=middle;whiteSpace=wrap;rounded=0;" vertex="1" parent="73">
                    <mxGeometry x="-10" y="40" width="60" height="30" as="geometry"/>
                </mxCell>
                <mxCell id="75" value="" style="html=1;points=[];perimeter=orthogonalPerimeter;fontSize=12;" vertex="1" parent="73">
                    <mxGeometry x="20" y="240" width="10" height="120" as="geometry"/>
                </mxCell>
                <mxCell id="76" value="&lt;font size=&quot;1&quot;&gt;rateStar()&lt;/font&gt;" style="html=1;verticalAlign=bottom;startArrow=oval;endArrow=block;startSize=8;" edge="1" parent="1" source="66">
                    <mxGeometry x="-0.0039" relative="1" as="geometry">
                        <mxPoint x="1370" y="360" as="sourcePoint"/>
                        <mxPoint as="offset"/>
                        <mxPoint x="1510" y="360" as="targetPoint"/>
                        <Array as="points">
                            <mxPoint x="1453" y="360"/>
                        </Array>
                    </mxGeometry>
                </mxCell>
                <mxCell id="77" value="&lt;font size=&quot;1&quot;&gt;displayHomePage()&lt;/font&gt;" style="html=1;verticalAlign=bottom;startArrow=oval;endArrow=block;startSize=8;" edge="1" parent="1">
                    <mxGeometry x="-0.0039" relative="1" as="geometry">
                        <mxPoint x="1520" y="440" as="sourcePoint"/>
                        <mxPoint as="offset"/>
                        <mxPoint x="1620" y="440" as="targetPoint"/>
                        <Array as="points">
                            <mxPoint x="1563" y="440"/>
                        </Array>
                    </mxGeometry>
                </mxCell>
                <mxCell id="78" value="&lt;font style=&quot;font-size: 10px;&quot;&gt;displayHomePage()&lt;/font&gt;" style="html=1;verticalAlign=bottom;startArrow=oval;endArrow=block;startSize=8;" edge="1" parent="1">
                    <mxGeometry x="0.088" y="4" relative="1" as="geometry">
                        <mxPoint x="1370" y="520" as="sourcePoint"/>
                        <mxPoint as="offset"/>
                        <mxPoint x="1620" y="520" as="targetPoint"/>
                        <Array as="points"/>
                    </mxGeometry>
                </mxCell>
                <mxCell id="79" value="&lt;span style=&quot;font-size: 9px;&quot;&gt;pressNoRatingFeedbackButton()&lt;/span&gt;" style="html=1;verticalAlign=bottom;startArrow=oval;endArrow=block;startSize=8;" edge="1" parent="1">
                    <mxGeometry x="0.1231" relative="1" as="geometry">
                        <mxPoint x="1230" y="480" as="sourcePoint"/>
                        <mxPoint as="offset"/>
                        <mxPoint x="1360" y="480" as="targetPoint"/>
                        <Array as="points">
                            <mxPoint x="1303" y="480"/>
                        </Array>
                    </mxGeometry>
                </mxCell>
            </root>
        </mxGraphModel>
    </diagram>
</mxfile>